<svg width="242" height="25" viewBox="0 0 242 25" fill="none" xmlns="http://www.w3.org/2000/svg">
<path d="M0.5 12.5L93 12.5" stroke="#D2D2D2"/>
<path d="M124.553 14L119.5 22L117.5 22L120.026 14L114.666 14L113 17L111.5 17L112.5 12.5L111.5 8.00001L113 8.00001L114.667 11L120.027 11L117.5 3.00001L119.5 3.00001L124.553 11L130 11C130.398 11 130.779 11.158 131.061 11.4393C131.342 11.7207 131.5 12.1022 131.5 12.5C131.5 12.8978 131.342 13.2794 131.061 13.5607C130.779 13.842 130.398 14 130 14L124.553 14Z" fill="#17372F"/>
<path d="M149 12.5L241.5 12.5" stroke="#D2D2D2"/>
</svg>
